<svg preserveAspectRatio="none" overflow="visible" style="display: block;" width="28" height="28" viewBox="0 0 28 28" fill="none" xmlns="http://www.w3.org/2000/svg">
<g id="icon/profile">
<path id="Vector" opacity="0.5" d="M6.125 17.0625C6.125 14.7939 6.125 13.6596 6.81696 12.9548C7.50892 12.25 8.62261 12.25 10.85 12.25H17.15C19.3774 12.25 20.491 12.25 21.183 12.9548C21.875 13.6596 21.875 14.7939 21.875 17.0625C21.875 19.3311 21.875 20.4654 21.183 21.1702C20.491 21.875 19.3774 21.875 17.15 21.875H10.85C8.62261 21.875 7.50892 21.875 6.81696 21.1702C6.125 20.4654 6.125 19.3311 6.125 17.0625Z" fill="#A6ABB1"/>
<path id="Vector_2" d="M14 19.3594C14.9665 19.3594 15.75 18.5759 15.75 17.6094C15.75 16.6429 14.9665 15.8594 14 15.8594C13.0335 15.8594 12.25 16.6429 12.25 17.6094C12.25 18.5759 13.0335 19.3594 14 19.3594Z" fill="#A6ABB1"/>
<path id="Vector_3" d="M9.91667 10.7259C9.91667 8.42068 11.7448 6.55193 14 6.55193C16.2552 6.55193 18.0833 8.42068 18.0833 10.7259V12.3188C18.5246 12.323 18.9105 12.3335 19.25 12.3594V10.7259C19.25 7.76205 16.8995 5.35938 14 5.35938C11.1005 5.35938 8.75 7.76205 8.75 10.7259V12.3594C9.08951 12.3335 9.47539 12.323 9.91667 12.3188V10.7259Z" fill="#A6ABB1"/>
</g>
</svg>
