<svg preserveAspectRatio="none" overflow="visible" style="display: block;" width="20" height="20" viewBox="0 0 20 20" fill="none" xmlns="http://www.w3.org/2000/svg">
<g id="logo_apple">
<path id="&#239;&#163;&#191;" d="M10.2449 4.95187C11.0659 4.95187 12.0952 4.37972 12.7081 3.61684C13.2632 2.92549 13.668 1.95998 13.668 0.994465C13.668 0.863346 13.6564 0.732228 13.6333 0.624949C12.7197 0.660709 11.621 1.2567 10.9619 2.05534C10.4415 2.66325 9.96732 3.61684 9.96732 4.59428C9.96732 4.73731 9.99045 4.88035 10.002 4.92803C10.0598 4.93995 10.1523 4.95187 10.2449 4.95187ZM7.35373 19.3749C8.47549 19.3749 8.97276 18.6002 10.3721 18.6002C11.7945 18.6002 12.1068 19.3511 13.3557 19.3511C14.5816 19.3511 15.4027 18.183 16.1775 17.0386C17.0448 15.7275 17.4033 14.4401 17.4265 14.3805C17.3455 14.3567 14.9979 13.3673 14.9979 10.59C14.9979 8.18216 16.8482 7.09745 16.9523 7.01401C15.7265 5.20219 13.8646 5.15451 13.3557 5.15451C11.9795 5.15451 10.8578 6.01274 10.1524 6.01274C9.38909 6.01274 8.38297 5.20219 7.19182 5.20219C4.92517 5.20219 2.62382 7.13321 2.62382 10.7807C2.62382 13.0455 3.4796 15.4414 4.53198 16.991C5.43401 18.3022 6.2204 19.3749 7.35373 19.3749Z" fill="white"/>
</g>
</svg>
